# Blender 3.3.1
# www.blender.org
mtllib Roof.mtl
o Cube
v -1.100000 -0.000733 1.066311
v 1.100000 1.472080 0.329904
v -1.100000 -0.000733 -1.133689
v -1.100000 2.199267 -0.033689
v 1.100000 -0.000733 1.066311
v 1.100000 0.738746 0.696571
v 1.100000 -0.000733 -1.133689
v 1.100000 2.199267 -0.033689
v -1.100000 0.738746 0.696571
v -1.100000 1.472080 0.329904
v 0.366667 -0.000733 -1.133689
v -0.366667 -0.000733 -1.133689
v -0.366667 2.199267 -0.033689
v 0.366667 2.199267 -0.033689
v -0.366667 -0.000733 1.066311
v 0.366667 -0.000733 1.066311
v -0.366667 1.472080 0.329904
v 0.366667 1.472080 0.329904
v -0.366667 0.738746 0.696571
v 0.366667 0.738746 0.696571
v -0.366667 1.455910 0.272657
v 0.366667 1.455910 0.272657
v -0.366667 1.406786 1.091076
v 0.366667 1.406786 1.091076
v -0.366667 1.943994 0.370385
v 0.366667 1.943994 0.370385
v 0.366667 1.878700 1.131557
v -0.366667 1.878700 1.131557
vn 1.0000 -0.0000 -0.0000
vn -0.0000 0.4472 -0.8944
vn -0.0000 0.4472 0.8944
vn -0.0000 -1.0000 -0.0000
vn -1.0000 -0.0000 -0.0000
vn -0.0000 -0.5085 0.8611
vn -0.0000 0.0855 -0.9963
vn -0.0000 0.9963 0.0855
vn -0.0000 -0.0855 0.9963
vt 0.310125 0.000000
vt 0.587510 0.653270
vt 0.310125 0.653270
vt 0.277384 0.459819
vt 0.620250 0.229722
vt 0.310125 0.791962
vt 0.310125 0.343144
vt 0.310125 0.000000
vt 0.310125 0.343144
vt 0.587509 1.000000
vt 0.310125 0.345211
vt 0.277384 0.691941
vt 0.620250 0.653270
vt 0.620250 0.000000
vt 0.277384 0.575396
vt 0.620250 0.115340
vt 0.000000 0.553249
vt 0.000000 0.000000
vt 0.620250 0.343144
vt 0.277384 0.345211
vt 0.000000 0.345211
vt 0.620250 0.343144
vt 0.587510 0.769815
vt 0.310125 0.115340
vt 0.587510 0.885392
vt 0.310125 0.229722
vt 0.516875 0.343144
vt 0.103375 0.000000
vt 0.413500 0.343144
vt 0.206750 0.000000
vt 0.413500 0.343144
vt 0.206750 0.345211
vt 0.516875 0.343144
vt 0.103375 0.345211
vt 0.413500 0.653270
vt 0.413500 0.000000
vt 0.516875 0.653270
vt 0.516875 0.000000
vt 0.413500 0.229722
vt 0.913765 0.783486
vt 0.849679 0.394143
vt 0.516875 0.229722
vt 0.913765 0.680111
vt 0.849679 0.196985
vt 0.910013 0.295564
vt 0.413500 0.115340
vt 0.849105 0.501339
vt 0.516875 0.115340
vt 0.952480 0.501339
vt 0.910013 0.295564
vt 0.957373 0.394143
vt 0.849105 0.573260
vt 0.952480 0.573260
vt 0.957373 0.196985
vt 0.849679 0.783486
vt 0.816939 0.891179
vt 0.849679 0.460911
vt 0.849679 0.680111
vt 0.920314 0.891179
vt 0.849679 0.130216
vt 0.920314 0.783486
vt 0.952480 0.634620
vt 0.957373 0.130216
vt 0.816939 0.783486
vt 0.957373 0.460911
vt 0.849105 0.634620
s 0
usemtl Material.001
f 8/20/1 2/4/1 6/15/1 5/12/1 7/17/1
f 11/28/2 14/34/2 8/21/2 7/18/2
f 19/46/3 9/24/3 1/1/3 15/36/3
f 13/31/3 4/9/3 10/26/3 17/39/3
f 11/27/4 7/19/4 5/13/4 16/37/4
f 3/6/5 1/2/5 9/23/5 10/25/5 4/10/5
f 17/39/3 10/26/3 9/24/3 19/46/3
f 2/5/3 18/42/3 20/48/3 6/16/3
f 19/45/5 23/51/5 17/41/5
f 3/7/4 12/29/4 15/35/4 1/3/4
f 12/29/4 11/27/4 16/37/4 15/35/4
f 8/22/3 14/33/3 18/42/3 2/5/3
f 14/33/3 13/31/3 17/39/3 18/42/3
f 6/16/3 20/48/3 16/38/3 5/14/3
f 20/48/3 19/46/3 15/36/3 16/38/3
f 3/8/2 4/11/2 13/32/2 12/30/2
f 12/30/2 13/32/2 14/34/2 11/28/2
f 19/47/6 20/49/6 24/53/6 23/52/6
f 18/43/7 17/40/7 25/55/7 26/58/7
f 25/56/8 28/64/8 27/61/8 26/59/8
f 20/50/1 18/44/1 24/54/1
f 17/41/5 23/51/5 28/65/5 25/57/5
f 23/52/9 24/53/9 27/62/9 28/66/9
f 24/54/1 18/44/1 26/60/1 27/63/1
l 21 17
l 22 18
