# Blender 3.4.0
# www.blender.org
mtllib MoturWheel.mtl
o FrontWheel
v 1.117980 -0.000000 0.441356
v 0.975357 -0.355001 0.521383
v 0.795119 -0.667184 0.521383
v 0.518977 -0.898895 0.521382
v 0.180239 -1.022185 0.521382
v -0.180239 -1.022185 0.521382
v -0.518977 -0.898895 0.521382
v -0.795119 -0.667184 0.521383
v -0.975357 -0.355001 0.521383
v -1.037953 -0.000000 0.521383
v -0.975357 0.355001 0.521383
v -0.795119 0.667183 0.521383
v -0.518977 0.898894 0.521383
v -0.180240 1.022184 0.521383
v 0.180239 1.022184 0.521383
v 0.518976 0.898894 0.521383
v 0.795119 0.667184 0.521383
v 1.050558 0.382372 0.441356
v 1.117980 -0.000000 -0.441356
v 1.050559 -0.382372 -0.441356
v 0.856423 -0.718623 -0.441356
v 0.558990 -0.968199 -0.441356
v 0.194136 -1.100996 -0.441356
v -0.194134 -1.100996 -0.441356
v -0.558990 -0.968199 -0.441356
v -0.856423 -0.718623 -0.441356
v -1.050557 -0.382372 -0.441356
v -1.117980 -0.000000 -0.441356
v -1.050557 0.382371 -0.441356
v -0.856423 0.718623 -0.441356
v -0.558990 0.968198 -0.441356
v -0.194136 1.100995 -0.441356
v 0.194136 1.100995 -0.441356
v 0.558990 0.968199 -0.441356
v 0.856423 0.718624 -0.441356
v 1.050558 0.382373 -0.441356
v 0.516362 0.433279 0.521383
v 0.337031 0.583754 0.521383
v 0.117050 0.663822 0.521383
v -0.117050 0.663822 0.521383
v -0.337030 0.583754 0.521383
v -0.516361 0.433278 0.521383
v -0.633411 0.230542 0.521383
v -0.674062 -0.000000 0.521383
v -0.633411 -0.230543 0.521383
v -0.516361 -0.433279 0.521383
v -0.337030 -0.583755 0.521383
v -0.117050 -0.663822 0.521383
v 0.117050 -0.663822 0.521383
v 0.337031 -0.583755 0.521383
v 0.516362 -0.433279 0.521383
v 0.633412 -0.230543 0.521383
v 0.674063 -0.000000 0.521383
v 0.633412 0.230543 0.521383
v 0.117050 0.663822 -0.521382
v 0.337031 0.583755 -0.521382
v 0.516362 0.433279 -0.521382
v 0.633412 0.230543 -0.521382
v 0.674063 -0.000000 -0.521382
v 0.633412 -0.230543 -0.521382
v 0.516362 -0.433279 -0.521382
v 0.337031 -0.583755 -0.521382
v 0.117050 -0.663822 -0.521382
v -0.117050 -0.663821 -0.521382
v -0.337030 -0.583755 -0.521382
v -0.516361 -0.433279 -0.521382
v -0.633411 -0.230543 -0.521382
v -0.674062 -0.000000 -0.521382
v -0.633411 0.230543 -0.521382
v -0.516361 0.433278 -0.521382
v -0.337030 0.583754 -0.521382
v -0.117050 0.663822 -0.521382
v 1.037954 -0.000000 0.521383
v 1.050559 -0.382372 0.441356
v 0.856423 -0.718624 0.441356
v 0.558990 -0.968200 0.441356
v 0.194136 -1.100996 0.441356
v -0.194134 -1.100996 0.441356
v -0.558990 -0.968200 0.441356
v -0.856423 -0.718624 0.441356
v -1.050557 -0.382372 0.441356
v -1.117980 -0.000000 0.441356
v -1.050557 0.382371 0.441356
v -0.856423 0.718623 0.441356
v -0.558990 0.968198 0.441356
v -0.194136 1.100995 0.441356
v 0.194136 1.100995 0.441356
v 0.558990 0.968199 0.441356
v 0.856423 0.718624 0.441356
v 0.975357 0.355002 0.521383
v 1.037954 -0.000000 -0.521382
v 0.975357 -0.355001 -0.521382
v 0.795119 -0.667184 -0.521382
v 0.518977 -0.898894 -0.521382
v 0.180239 -1.022185 -0.521382
v -0.180239 -1.022184 -0.521382
v -0.518977 -0.898894 -0.521382
v -0.795119 -0.667184 -0.521382
v -0.975357 -0.355001 -0.521382
v -1.037953 -0.000000 -0.521382
v -0.975357 0.355001 -0.521382
v -0.795119 0.667183 -0.521382
v -0.518977 0.898894 -0.521382
v -0.180240 1.022184 -0.521382
v 0.180239 1.022184 -0.521382
v 0.518976 0.898894 -0.521382
v 0.795119 0.667184 -0.521382
v 0.975357 0.355002 -0.521382
v 1.106547 -0.000000 0.475658
v 1.007591 -0.366733 0.509949
v 0.821396 -0.689233 0.509948
v 0.536129 -0.928601 0.509948
v 0.186195 -1.055966 0.509948
v -0.186196 -1.055966 0.509948
v -0.536127 -0.928600 0.509948
v -0.821396 -0.689233 0.509948
v -1.007590 -0.366733 0.509949
v -1.072256 -0.000000 0.509949
v -1.007590 0.366733 0.509949
v -0.821396 0.689232 0.509949
v -0.536127 0.928600 0.509949
v -0.186196 1.055966 0.509949
v 0.186195 1.055966 0.509949
v 0.536128 0.928601 0.509949
v 0.821395 0.689232 0.509949
v 1.039813 0.378462 0.475658
v 1.106547 -0.000000 -0.475658
v 1.039814 -0.378461 -0.475658
v 0.847664 -0.711274 -0.475658
v 0.553273 -0.958297 -0.475658
v 0.192150 -1.089735 -0.475658
v -0.192150 -1.089735 -0.475658
v -0.553272 -0.958297 -0.475658
v -0.847663 -0.711274 -0.475658
v -1.039813 -0.378461 -0.475658
v -1.106545 -0.000000 -0.475658
v -1.039813 0.378460 -0.475658
v -0.847663 0.711274 -0.475658
v -0.553273 0.958297 -0.475658
v -0.192150 1.089735 -0.475658
v 0.192149 1.089735 -0.475658
v 0.553273 0.958297 -0.475658
v 0.847663 0.711274 -0.475658
v 1.039813 0.378462 -0.475658
v 1.072256 -0.000000 0.509949
v 1.039814 -0.378461 0.475657
v 0.847664 -0.711274 0.475657
v 0.553273 -0.958297 0.475657
v 0.192150 -1.089735 0.475657
v -0.192150 -1.089735 0.475657
v -0.553272 -0.958297 0.475657
v -0.847663 -0.711274 0.475657
v -1.039813 -0.378461 0.475657
v -1.106545 -0.000000 0.475658
v -1.039813 0.378460 0.475658
v -0.847663 0.711274 0.475658
v -0.553273 0.958297 0.475658
v -0.192150 1.089735 0.475658
v 0.192149 1.089735 0.475658
v 0.553273 0.958297 0.475658
v 0.847663 0.711274 0.475658
v 1.007591 0.366734 0.509949
v 1.072256 -0.000000 -0.509948
v 1.007591 -0.366733 -0.509948
v 0.821396 -0.689233 -0.509949
v 0.536129 -0.928600 -0.509949
v 0.186195 -1.055966 -0.509949
v -0.186196 -1.055966 -0.509949
v -0.536127 -0.928600 -0.509949
v -0.821396 -0.689233 -0.509949
v -1.007590 -0.366733 -0.509948
v -1.072256 -0.000000 -0.509948
v -1.007590 0.366733 -0.509948
v -0.821396 0.689232 -0.509948
v -0.536127 0.928600 -0.509948
v -0.186196 1.055966 -0.509948
v 0.186195 1.055966 -0.509948
v 0.536128 0.928601 -0.509948
v 0.821395 0.689232 -0.509948
v 1.007591 0.366734 -0.509948
vn 0.4938 0.8552 0.1574
vn 0.7565 0.6348 0.1574
vn 0.7565 0.6348 -0.1574
vn 0.4938 0.8552 -0.1574
vn 0.1715 0.9725 0.1574
vn 0.1715 0.9725 -0.1574
vn -0.1715 0.9725 0.1574
vn -0.1715 0.9725 -0.1574
vn -0.4938 0.8552 0.1574
vn -0.4938 0.8552 -0.1574
vn -0.7565 0.6348 0.1574
vn -0.7565 0.6348 -0.1574
vn -0.9280 0.3378 0.1574
vn -0.9280 0.3378 -0.1574
vn -0.9875 -0.0000 0.1574
vn -0.9280 0.3377 0.1574
vn -0.9280 0.3377 -0.1574
vn -0.9875 -0.0000 -0.1574
vn -0.9280 -0.3377 0.1574
vn -0.9280 -0.3377 -0.1574
vn -0.7565 -0.6348 0.1574
vn -0.9280 -0.3378 0.1574
vn -0.9280 -0.3378 -0.1574
vn -0.7565 -0.6348 -0.1574
vn -0.4938 -0.8552 0.1574
vn -0.4938 -0.8552 -0.1574
vn -0.1715 -0.9725 0.1574
vn -0.1715 -0.9725 -0.1574
vn 0.1715 -0.9725 0.1574
vn 0.1715 -0.9725 -0.1574
vn 0.4938 -0.8552 0.1574
vn 0.4938 -0.8552 -0.1574
vn 0.7565 -0.6348 0.1574
vn 0.7565 -0.6348 -0.1574
vn 0.9280 -0.3378 0.1574
vn 0.9280 -0.3378 -0.1574
vn 0.9875 -0.0000 0.1574
vn 0.9280 -0.3377 0.1574
vn 0.9280 -0.3377 -0.1574
vn 0.9875 -0.0000 -0.1574
vn 0.9280 0.3378 0.1574
vn 0.9280 0.3378 -0.1574
vn 0.9280 0.3377 0.1574
vn 0.9280 0.3377 -0.1574
vn 0.1359 0.1141 0.9841
vn 0.0887 0.1537 0.9841
vn -0.0000 -0.0000 1.0000
vn 0.0308 0.1747 0.9841
vn -0.0308 0.1747 0.9841
vn -0.0887 0.1537 0.9841
vn -0.1359 0.1140 0.9841
vn -0.1359 0.1141 0.9841
vn -0.1667 0.0607 0.9841
vn -0.1774 -0.0000 0.9841
vn -0.1667 -0.0607 0.9841
vn -0.1359 -0.1141 0.9841
vn -0.1359 -0.1140 0.9841
vn -0.0888 -0.1536 0.9841
vn -0.0887 -0.1537 0.9841
vn -0.0308 -0.1747 0.9841
vn 0.0308 -0.1747 0.9841
vn 0.0888 -0.1536 0.9841
vn 0.0887 -0.1537 0.9841
vn 0.1359 -0.1140 0.9841
vn 0.1359 -0.1141 0.9841
vn 0.1667 -0.0607 0.9841
vn 0.1774 -0.0000 0.9841
vn 0.1667 0.0607 0.9841
vn 0.0308 0.1747 -0.9841
vn 0.0887 0.1537 -0.9841
vn -0.0000 -0.0000 -1.0000
vn 0.1359 0.1140 -0.9841
vn 0.1667 0.0607 -0.9841
vn 0.1774 -0.0000 -0.9841
vn 0.1667 -0.0607 -0.9841
vn 0.1359 -0.1141 -0.9841
vn 0.1359 -0.1140 -0.9841
vn 0.0887 -0.1537 -0.9841
vn 0.0308 -0.1747 -0.9841
vn -0.0308 -0.1747 -0.9841
vn -0.0887 -0.1537 -0.9841
vn -0.1359 -0.1140 -0.9841
vn -0.1359 -0.1141 -0.9841
vn -0.1667 -0.0607 -0.9841
vn -0.1774 -0.0000 -0.9841
vn -0.1667 0.0607 -0.9841
vn -0.1359 0.1141 -0.9841
vn -0.1359 0.1140 -0.9841
vn -0.0887 0.1537 -0.9841
vn -0.0307 0.1748 -0.9841
vn -0.0308 0.1747 -0.9841
vn 0.4165 0.3495 0.8393
vn 0.2718 0.4709 0.8393
vn 0.2719 0.4708 0.8393
vn 0.0944 0.5354 0.8393
vn -0.0944 0.5354 0.8393
vn -0.2719 0.4708 0.8393
vn -0.2718 0.4709 0.8393
vn -0.4165 0.3495 0.8393
vn -0.5109 0.1859 0.8393
vn -0.5109 0.1860 0.8393
vn -0.5437 -0.0000 0.8393
vn -0.5109 -0.1860 0.8393
vn -0.5109 -0.1859 0.8393
vn -0.4165 -0.3495 0.8393
vn -0.2718 -0.4709 0.8393
vn -0.0887 -0.1536 0.9841
vn -0.2719 -0.4708 0.8393
vn -0.0944 -0.5354 0.8393
vn 0.0944 -0.5354 0.8393
vn 0.2719 -0.4708 0.8393
vn 0.0887 -0.1536 0.9841
vn 0.2718 -0.4709 0.8393
vn 0.4165 -0.3495 0.8393
vn 0.5109 -0.1859 0.8393
vn 0.5109 -0.1860 0.8393
vn 0.5437 -0.0000 0.8393
vn 0.5109 0.1859 0.8393
vn 0.1359 0.1140 0.9841
vn 0.5109 0.1860 0.8393
vn 0.0944 0.5354 -0.8393
vn 0.2719 0.4708 -0.8393
vn 0.2718 0.4709 -0.8393
vn 0.4165 0.3495 -0.8393
vn -0.2719 0.4708 -0.8393
vn -0.0944 0.5354 -0.8393
vn -0.5109 0.1859 -0.8393
vn -0.4165 0.3495 -0.8393
vn -0.2718 0.4709 -0.8393
vn -0.5109 -0.1860 -0.8393
vn -0.5437 -0.0000 -0.8393
vn -0.5109 0.1860 -0.8393
vn -0.2718 -0.4709 -0.8393
vn -0.4165 -0.3495 -0.8393
vn -0.5109 -0.1859 -0.8393
vn 0.0944 -0.5354 -0.8393
vn -0.0944 -0.5354 -0.8393
vn -0.2719 -0.4708 -0.8393
vn 0.4165 -0.3495 -0.8393
vn 0.2718 -0.4709 -0.8393
vn 0.2719 -0.4708 -0.8393
vn 0.5437 -0.0000 -0.8393
vn 0.5109 -0.1860 -0.8393
vn 0.5109 -0.1859 -0.8393
vn 0.1359 0.1141 -0.9841
vn 0.5109 0.1859 -0.8393
vn 0.5109 0.1860 -0.8393
vn 0.6568 0.5511 0.5147
vn 0.7565 0.6348 0.1575
vn 0.4937 0.8552 0.1575
vn 0.4287 0.7425 0.5147
vn 0.1489 0.8444 0.5147
vn 0.1489 0.8444 0.5146
vn 0.1715 0.9725 0.1575
vn -0.1715 0.9725 0.1575
vn -0.1489 0.8444 0.5147
vn -0.1489 0.8444 0.5146
vn -0.4287 0.7425 0.5146
vn -0.4287 0.7425 0.5147
vn -0.6568 0.5511 0.5147
vn -0.8057 0.2932 0.5147
vn -0.8057 0.2933 0.5147
vn -0.8574 -0.0000 0.5147
vn -0.8057 -0.2933 0.5147
vn -0.8057 -0.2932 0.5147
vn -0.6568 -0.5511 0.5147
vn -0.7565 -0.6348 0.1575
vn -0.4938 -0.8552 0.1575
vn -0.4287 -0.7425 0.5147
vn -0.1489 -0.8444 0.5147
vn 0.1489 -0.8444 0.5147
vn 0.4287 -0.7425 0.5147
vn 0.6568 -0.5511 0.5147
vn 0.8057 -0.2932 0.5147
vn 0.8057 -0.2933 0.5146
vn 0.8574 -0.0000 0.5146
vn 0.8057 0.2932 0.5147
vn 0.9280 0.3377 0.1575
vn 0.8057 0.2933 0.5146
vn 0.1489 0.8444 -0.5146
vn 0.4287 0.7425 -0.5147
vn 0.4938 0.8552 -0.1575
vn 0.7565 0.6348 -0.1575
vn 0.6568 0.5511 -0.5147
vn -0.4287 0.7425 -0.5146
vn -0.1489 0.8444 -0.5146
vn -0.1489 0.8444 -0.5147
vn -0.1715 0.9725 -0.1575
vn 0.1715 0.9725 -0.1575
vn -0.8057 0.2932 -0.5147
vn -0.6568 0.5511 -0.5147
vn -0.4937 0.8552 -0.1575
vn -0.4287 0.7425 -0.5147
vn -0.8057 -0.2933 -0.5147
vn -0.8574 -0.0000 -0.5147
vn -0.8057 0.2933 -0.5147
vn -0.4287 -0.7425 -0.5147
vn -0.6568 -0.5511 -0.5147
vn -0.8057 -0.2932 -0.5147
vn 0.1489 -0.8444 -0.5147
vn -0.1489 -0.8444 -0.5146
vn -0.1489 -0.8444 -0.5147
vn 0.6568 -0.5511 -0.5147
vn 0.7565 -0.6348 -0.1575
vn 0.4937 -0.8552 -0.1574
vn 0.4287 -0.7425 -0.5147
vn 0.4938 -0.8552 -0.1575
vn 0.8574 -0.0000 -0.5147
vn 0.9875 -0.0000 -0.1575
vn 0.8057 -0.2933 -0.5146
vn 0.8057 -0.2932 -0.5146
vn 0.6568 -0.5511 -0.5146
vn 0.8057 0.2932 -0.5147
vn 0.8057 0.2933 -0.5146
vn 0.8574 -0.0000 -0.5146
vn 0.2719 0.4709 0.8393
vn -0.2719 0.4709 0.8393
vn -0.6568 0.5511 0.5146
vn -0.8057 0.2932 0.5146
vn -0.8574 -0.0000 0.5146
vn -0.6568 -0.5511 0.5146
vn -0.4287 -0.7425 0.5146
vn -0.2719 -0.4709 0.8393
vn 0.1489 -0.8444 0.5146
vn 0.2719 -0.4709 0.8393
vn 0.4287 -0.7425 0.5146
vn 0.6568 -0.5511 0.5146
vn 0.8057 -0.2932 0.5146
vn 0.8574 -0.0000 0.5147
vn 0.8057 0.2933 0.5147
vn 0.1489 0.8444 -0.5147
vn -0.2719 0.4709 -0.8393
vn -0.8057 -0.2933 -0.5146
vn -0.8057 0.2933 -0.5146
vn -0.2719 -0.4709 -0.8393
vn -0.4287 -0.7425 -0.5146
vn -0.6568 -0.5511 -0.5146
vn 0.2719 -0.4709 -0.8393
vn 0.8057 -0.2933 -0.5147
vn 0.8057 -0.2932 -0.5147
vn 0.8057 0.2933 -0.5147
vt 0.053674 0.763651
vt 0.371945 0.112420
vt 0.364080 0.098603
vt 0.356563 0.086536
vt 0.345467 0.077750
vt 0.332115 0.073220
vt 0.318057 0.073413
vt 0.304880 0.078281
vt 0.294066 0.087273
vt 0.286860 0.099399
vt 0.284137 0.113295
vt 0.286269 0.127359
vt 0.293094 0.139959
vt 0.303923 0.149567
vt 0.317569 0.154954
vt 0.332533 0.155313
vt 0.347118 0.149922
vt 0.358248 0.139914
vt 0.053678 0.779210
vt 0.369799 0.128447
vt 0.089056 0.763637
vt 0.411492 0.080835
vt 0.089051 0.748077
vt 0.427064 0.075727
vt 0.089047 0.732514
vt 0.443206 0.076225
vt 0.089046 0.716950
vt 0.458060 0.082105
vt 0.089126 0.981512
vt 0.089047 0.701385
vt 0.469962 0.092585
vt 0.089103 0.965949
vt 0.477610 0.106382
vt 0.089094 0.950390
vt 0.480174 0.121890
vt 0.089096 0.934832
vt 0.477416 0.137341
vt 0.089100 0.919268
vt 0.469670 0.150966
vt 0.089098 0.903706
vt 0.457803 0.161237
vt 0.089090 0.888147
vt 0.443164 0.166964
vt 0.089085 0.872588
vt 0.427396 0.167447
vt 0.089085 0.857025
vt 0.412305 0.162579
vt 0.089085 0.841455
vt 0.399655 0.152822
vt 0.089079 0.825881
vt 0.390971 0.139203
vt 0.089069 0.810314
vt 0.387398 0.123209
vt 0.089061 0.794756
vt 0.389509 0.106591
vt 0.089060 0.779201
vt 0.398290 0.091148
vt 0.346568 0.130620
vt 0.339256 0.136910
vt 0.330039 0.140318
vt 0.320394 0.140300
vt 0.311516 0.136977
vt 0.304428 0.130848
vt 0.299927 0.122713
vt 0.298495 0.113561
vt 0.300242 0.104478
vt 0.304940 0.096528
vt 0.312016 0.090621
vt 0.320655 0.087430
vt 0.329870 0.087317
vt 0.338603 0.090303
vt 0.345830 0.096064
vt 0.350687 0.103950
vt 0.352552 0.113055
vt 0.351152 0.122319
vt 0.409168 0.131877
vt 0.407333 0.122578
vt 0.408882 0.113048
vt 0.413746 0.104494
vt 0.421143 0.098289
vt 0.430073 0.095110
vt 0.439431 0.095235
vt 0.448105 0.098562
vt 0.455093 0.104633
vt 0.459607 0.112695
vt 0.461138 0.121793
vt 0.459524 0.130875
vt 0.454964 0.138896
vt 0.447984 0.144929
vt 0.439382 0.148267
vt 0.430146 0.148510
vt 0.421355 0.145607
vt 0.414061 0.139855
vt 0.367084 0.112608
vt 0.053665 0.748089
vt 0.368546 0.096793
vt 0.053660 0.732522
vt 0.360134 0.083343
vt 0.053657 0.716951
vt 0.347743 0.073559
vt 0.053726 0.981567
vt 0.053659 0.701383
vt 0.332855 0.068526
vt 0.053706 0.965987
vt 0.317190 0.068750
vt 0.053700 0.950407
vt 0.302508 0.074173
vt 0.053710 0.934833
vt 0.290451 0.084185
vt 0.053721 0.919273
vt 0.282404 0.097693
vt 0.053723 0.903721
vt 0.279346 0.113189
vt 0.053714 0.888168
vt 0.281697 0.128887
vt 0.053701 0.872608
vt 0.289276 0.142979
vt 0.053691 0.857041
vt 0.301337 0.153759
vt 0.053685 0.841469
vt 0.316551 0.159858
vt 0.053682 0.825898
vt 0.333267 0.160463
vt 0.053681 0.810330
vt 0.349911 0.154312
vt 0.053680 0.794768
vt 0.362211 0.142976
vt 0.365108 0.126945
vt 0.413867 0.085248
vt 0.427779 0.080596
vt 0.442233 0.080985
vt 0.455550 0.086217
vt 0.466235 0.095589
vt 0.473107 0.107953
vt 0.475418 0.121862
vt 0.472949 0.135724
vt 0.465996 0.147954
vt 0.455346 0.157165
vt 0.442211 0.162292
vt 0.428072 0.162708
vt 0.414554 0.158320
vt 0.403248 0.149551
vt 0.395522 0.137329
vt 0.392405 0.122993
vt 0.394475 0.108151
vt 0.402170 0.094618
vt 0.370476 0.112478
vt 0.365407 0.098066
vt 0.357625 0.085588
vt 0.346144 0.076505
vt 0.332335 0.071826
vt 0.317799 0.072027
vt 0.304175 0.077060
vt 0.292992 0.086356
vt 0.285537 0.098892
vt 0.282713 0.113264
vt 0.284911 0.127814
vt 0.291961 0.140857
vt 0.303157 0.150813
vt 0.317269 0.156411
vt 0.332755 0.156837
vt 0.347940 0.151225
vt 0.359423 0.140825
vt 0.368380 0.127995
vt 0.412208 0.082170
vt 0.427278 0.077199
vt 0.442910 0.077663
vt 0.457301 0.083347
vt 0.468835 0.093493
vt 0.476250 0.106856
vt 0.478737 0.121882
vt 0.476066 0.136852
vt 0.468560 0.150056
vt 0.457060 0.160007
vt 0.442875 0.165553
vt 0.427600 0.166015
vt 0.412983 0.161291
vt 0.400740 0.151832
vt 0.392346 0.138635
vt 0.388912 0.123142
vt 0.391016 0.107059
vt 0.399463 0.092204
vt 0.368528 0.112554
vt 0.367197 0.097341
vt 0.359055 0.084309
vt 0.347056 0.074825
vt 0.332632 0.069945
vt 0.317452 0.070159
vt 0.303225 0.075414
vt 0.291543 0.085118
vt 0.283751 0.098209
vt 0.280794 0.113222
vt 0.283080 0.128426
vt 0.290431 0.142067
vt 0.302120 0.152493
vt 0.316862 0.158376
vt 0.333050 0.158900
vt 0.349059 0.152983
vt 0.361011 0.142052
vt 0.366501 0.127393
vt 0.413160 0.083939
vt 0.427565 0.079150
vt 0.442520 0.079571
vt 0.456295 0.084995
vt 0.467341 0.094696
vt 0.474445 0.107486
vt 0.476831 0.121870
vt 0.474276 0.136204
vt 0.467087 0.148849
vt 0.456076 0.158375
vt 0.442494 0.163680
vt 0.427871 0.164116
vt 0.413885 0.159584
vt 0.402180 0.150522
vt 0.394170 0.137884
vt 0.390918 0.123055
vt 0.393006 0.107685
vt 0.401018 0.093594
s 0
usemtl lambert2SG
f 88/124/1 89/126/2 35/54/3 34/52/4
f 87/122/5 88/124/1 34/52/4 33/50/6
f 86/120/7 87/122/5 33/50/6 32/48/8
f 85/118/9 86/120/7 32/48/8 31/46/10
f 84/116/11 85/118/9 31/46/10 30/44/12
f 83/114/13 84/116/11 30/44/12 29/42/14
f 82/112/15 83/114/16 29/42/17 28/40/18
f 81/110/19 82/112/15 28/40/18 27/38/20
f 80/108/21 81/110/22 27/38/23 26/36/24
f 79/106/25 80/108/21 26/36/24 25/34/26
f 78/104/27 79/106/25 25/34/26 24/32/28
f 77/101/29 78/104/27 24/32/28 23/29/30
f 76/99/31 77/102/29 23/30/30 22/27/32
f 75/97/33 76/99/31 22/27/32 21/25/34
f 74/95/35 75/97/33 21/25/34 20/23/36
f 1/1/37 74/95/38 20/23/39 19/21/40
f 89/126/2 18/19/41 36/56/42 35/54/3
f 18/19/43 1/1/37 19/21/40 36/56/44
f 17/18/45 16/17/46 38/59/47 37/58/47
f 16/17/46 15/16/48 39/60/47 38/59/47
f 15/16/48 14/15/49 40/61/47 39/60/47
f 14/15/49 13/14/50 41/62/47 40/61/47
f 13/14/50 12/13/51 42/63/47 41/62/47
f 12/13/52 11/12/53 43/64/47 42/63/47
f 11/12/53 10/11/54 44/65/47 43/64/47
f 10/11/54 9/10/55 45/66/47 44/65/47
f 9/10/55 8/9/56 46/67/47 45/66/47
f 8/9/57 7/8/58 47/68/47 46/67/47
f 7/8/59 6/7/60 48/69/47 47/68/47
f 6/7/60 5/6/61 49/70/47 48/69/47
f 5/6/61 4/5/62 50/71/47 49/70/47
f 4/5/63 3/4/64 51/72/47 50/71/47
f 3/4/65 2/3/66 52/73/47 51/72/47
f 2/3/66 73/94/67 53/74/47 52/73/47
f 73/94/67 90/128/68 54/75/47 53/74/47
f 90/128/68 17/18/45 37/58/47 54/75/47
f 105/143/69 106/144/70 56/77/71 55/76/71
f 106/144/70 107/145/72 57/78/71 56/77/71
f 107/145/72 108/146/73 58/79/71 57/78/71
f 108/146/73 91/129/74 59/80/71 58/79/71
f 91/129/74 92/130/75 60/81/71 59/80/71
f 92/130/75 93/131/76 61/82/71 60/81/71
f 93/131/77 94/132/78 62/83/71 61/82/71
f 94/132/78 95/133/79 63/84/71 62/83/71
f 95/133/79 96/134/80 64/85/71 63/84/71
f 96/134/80 97/135/81 65/86/71 64/85/71
f 97/135/81 98/136/82 66/87/71 65/86/71
f 98/136/83 99/137/84 67/88/71 66/87/71
f 99/137/84 100/138/85 68/89/71 67/88/71
f 100/138/85 101/139/86 69/90/71 68/89/71
f 101/139/86 102/140/87 70/91/71 69/90/71
f 102/140/88 103/141/89 71/92/71 70/91/71
f 103/141/89 104/142/90 72/93/71 71/92/71
f 104/142/91 105/143/69 55/76/71 72/93/71
f 17/18/45 125/163/92 124/162/93 16/17/46
f 16/17/46 124/162/94 123/161/95 15/16/48
f 15/16/48 123/161/95 122/160/96 14/15/49
f 14/15/49 122/160/96 121/159/97 13/14/50
f 13/14/50 121/159/98 120/158/99 12/13/52
f 12/13/52 120/158/99 119/157/100 11/12/53
f 11/12/53 119/157/101 118/156/102 10/11/54
f 10/11/54 118/156/102 117/155/103 9/10/55
f 9/10/55 117/155/104 116/154/105 8/9/57
f 8/9/57 116/154/105 115/153/106 7/8/107
f 7/8/59 115/153/108 114/152/109 6/7/60
f 6/7/60 114/152/109 113/151/110 5/6/61
f 5/6/61 113/151/110 112/150/111 4/5/63
f 4/5/112 112/150/113 111/149/114 3/4/64
f 3/4/64 111/149/114 110/148/115 2/3/66
f 2/3/66 110/148/116 145/183/117 73/94/67
f 90/128/68 162/200/118 125/163/92 17/18/119
f 73/94/67 145/183/117 162/200/120 90/128/68
f 105/143/69 177/215/121 178/216/122 106/144/70
f 106/144/70 178/216/123 179/217/124 107/145/72
f 103/141/89 175/213/125 176/214/126 104/142/91
f 104/142/91 176/214/126 177/215/121 105/143/69
f 101/139/86 173/211/127 174/212/128 102/140/87
f 102/140/88 174/212/128 175/213/129 103/141/89
f 99/137/84 171/209/130 172/210/131 100/138/85
f 100/138/85 172/210/131 173/211/132 101/139/86
f 97/135/81 169/207/133 170/208/134 98/136/82
f 98/136/83 170/208/134 171/209/135 99/137/84
f 95/133/79 167/205/136 168/206/137 96/134/80
f 96/134/80 168/206/137 169/207/138 97/135/81
f 93/131/77 165/203/139 166/204/140 94/132/78
f 94/132/78 166/204/141 167/205/136 95/133/79
f 91/129/74 163/201/142 164/202/143 92/130/75
f 92/130/75 164/202/144 165/203/139 93/131/76
f 107/145/145 179/217/124 180/218/146 108/146/73
f 108/146/73 180/218/147 163/201/142 91/129/74
f 161/199/148 89/127/149 88/125/150 160/198/151
f 160/198/151 88/125/1 87/123/5 159/197/152
f 159/197/153 87/123/154 86/121/155 158/196/156
f 158/196/157 86/121/7 85/119/9 157/195/158
f 157/195/159 85/119/9 84/117/11 156/194/160
f 156/194/160 84/117/11 83/115/13 155/193/161
f 155/193/162 83/115/13 82/113/15 154/192/163
f 154/192/163 82/113/15 81/111/22 153/191/164
f 153/191/165 81/111/22 80/109/21 152/190/166
f 152/190/166 80/109/167 79/107/168 151/189/169
f 151/189/169 79/107/25 78/105/27 150/188/170
f 150/188/170 78/105/27 77/103/29 149/187/171
f 149/187/171 77/103/29 76/100/31 148/186/172
f 148/186/172 76/100/31 75/98/33 147/185/173
f 147/185/173 75/98/33 74/96/35 146/184/174
f 146/184/175 74/96/35 1/2/37 109/147/176
f 126/164/177 18/20/178 89/127/2 161/199/148
f 109/147/176 1/2/37 18/20/178 126/164/179
f 141/179/180 33/51/6 34/53/4 142/180/181
f 142/180/181 34/53/182 35/55/183 143/181/184
f 139/177/185 31/47/10 32/49/8 140/178/186
f 140/178/187 32/49/188 33/51/189 141/179/180
f 137/175/190 29/43/14 30/45/12 138/176/191
f 138/176/191 30/45/12 31/47/192 139/177/193
f 135/173/194 27/39/23 28/41/18 136/174/195
f 136/174/195 28/41/18 29/43/14 137/175/196
f 133/171/197 25/35/26 26/37/24 134/172/198
f 134/172/198 26/37/24 27/39/23 135/173/199
f 131/169/200 23/31/30 24/33/28 132/170/201
f 132/170/202 24/33/28 25/35/26 133/171/197
f 129/167/203 21/26/204 22/28/205 130/168/206
f 130/168/206 22/28/207 23/31/30 131/169/200
f 127/165/208 19/22/209 20/24/36 128/166/210
f 128/166/211 20/24/39 21/26/34 129/167/212
f 143/181/184 35/55/3 36/57/42 144/182/213
f 144/182/214 36/57/42 19/22/40 127/165/215
f 125/163/92 161/199/148 160/198/151 124/162/216
f 124/162/93 160/198/151 159/197/152 123/161/95
f 123/161/95 159/197/152 158/196/156 122/160/96
f 122/160/96 158/196/156 157/195/159 121/159/98
f 121/159/217 157/195/159 156/194/160 120/158/99
f 120/158/99 156/194/218 155/193/219 119/157/101
f 119/157/101 155/193/161 154/192/220 118/156/102
f 118/156/102 154/192/163 153/191/165 117/155/103
f 117/155/103 153/191/165 152/190/166 116/154/105
f 116/154/105 152/190/221 151/189/222 115/153/223
f 115/153/223 151/189/169 150/188/170 114/152/109
f 114/152/109 150/188/170 149/187/171 113/151/110
f 113/151/110 149/187/224 148/186/172 112/150/113
f 112/150/225 148/186/226 147/185/227 111/149/114
f 111/149/114 147/185/227 146/184/228 110/148/116
f 110/148/116 146/184/174 109/147/229 145/183/117
f 162/200/120 126/164/177 161/199/148 125/163/92
f 145/183/117 109/147/229 126/164/230 162/200/120
f 177/215/121 141/179/231 142/180/181 178/216/123
f 178/216/123 142/180/181 143/181/184 179/217/124
f 175/213/129 139/177/193 140/178/187 176/214/126
f 176/214/126 140/178/187 141/179/231 177/215/121
f 173/211/132 137/175/190 138/176/191 174/212/128
f 174/212/128 138/176/191 139/177/193 175/213/232
f 171/209/130 135/173/233 136/174/195 172/210/131
f 172/210/131 136/174/195 137/175/234 173/211/132
f 169/207/235 133/171/236 134/172/237 170/208/134
f 170/208/134 134/172/198 135/173/199 171/209/130
f 167/205/136 131/169/200 132/170/202 168/206/137
f 168/206/137 132/170/202 133/171/197 169/207/133
f 165/203/139 129/167/203 130/168/206 166/204/238
f 166/204/140 130/168/206 131/169/200 167/205/136
f 163/201/142 127/165/208 128/166/239 164/202/143
f 164/202/143 128/166/240 129/167/203 165/203/139
f 179/217/124 143/181/184 144/182/213 180/218/147
f 180/218/147 144/182/241 127/165/208 163/201/142
